# 3ds Max Wavefront OBJ Exporter v0.99 - (c)2007 guruware
# File Created: 25.11.2021 16:41:26

mtllib j_body.mtl

#
# object Box001
#

v  -0.1042 0.0000 0.0789
v  -0.1042 0.0000 0.2367
v  -0.3127 0.0000 0.2367
v  -0.3127 0.0000 0.0789
v  0.1042 0.0000 0.0789
v  0.1042 0.0000 0.2367
v  0.3127 0.0000 0.0789
v  0.3127 0.0000 0.2367
v  -0.1042 0.0000 -0.0789
v  -0.3127 0.0000 -0.0789
v  0.1042 0.0000 -0.0789
v  0.3127 0.0000 -0.0789
v  -0.1042 0.0000 -0.2367
v  -0.3127 0.0000 -0.2367
v  0.1042 0.0000 -0.2367
v  0.3127 0.0000 -0.2367
v  -0.1840 0.4601 0.1393
v  -0.3127 0.4601 0.0789
v  -0.3127 0.4601 0.2367
v  -0.1042 0.4601 0.2367
v  0.1840 0.4601 0.1393
v  0.1042 0.4601 0.2367
v  0.3127 0.4601 0.0789
v  0.3127 0.4601 0.2367
v  -0.1840 0.4601 -0.1393
v  -0.3127 0.4601 -0.0789
v  0.1840 0.6683 -0.1393
v  -0.1840 0.6683 -0.1393
v  -0.1840 0.6683 0.1393
v  0.1840 0.6683 0.1393
v  0.3127 0.4601 -0.0789
v  0.1840 0.4601 -0.1393
v  -0.1042 0.4601 -0.2367
v  -0.3127 0.4601 -0.2367
v  0.1042 0.4601 -0.2367
v  0.3127 0.4601 -0.2367
# 36 vertices

vn 0.0000 -1.0000 -0.0000
vn 0.0000 1.0000 -0.0000
vn 0.0000 0.0000 1.0000
vn 1.0000 0.0000 -0.0000
vn 0.0000 0.0000 -1.0000
vn -1.0000 0.0000 -0.0000
# 6 vertex normals

vt 0.6667 0.3333 0.0000
vt 0.6667 0.0000 0.0000
vt 1.0000 0.0000 0.0000
vt 1.0000 0.3333 0.0000
vt 0.3333 0.3333 0.0000
vt 0.3333 0.0000 0.0000
vt 0.0000 0.3333 0.0000
vt 0.0000 0.0000 0.0000
vt 0.6667 0.6667 0.0000
vt 1.0000 0.6667 0.0000
vt 0.3333 0.6667 0.0000
vt 0.0000 0.6667 0.0000
vt 0.6667 1.0000 0.0000
vt 1.0000 1.0000 0.0000
vt 0.3333 1.0000 0.0000
vt 0.0000 1.0000 0.0000
# 16 texture coords

o Box001
g Box001
usemtl wire_143225087
s 2
f 1/1/1 2/2/1 3/3/1 
f 3/3/1 4/4/1 1/1/1 
f 5/5/1 6/6/1 2/2/1 
f 2/2/1 1/1/1 5/5/1 
f 7/7/1 8/8/1 6/6/1 
f 6/6/1 5/5/1 7/7/1 
f 9/9/1 1/1/1 4/4/1 
f 4/4/1 10/10/1 9/9/1 
f 11/11/1 5/5/1 1/1/1 
f 1/1/1 9/9/1 11/11/1 
f 12/12/1 7/7/1 5/5/1 
f 5/5/1 11/11/1 12/12/1 
f 13/13/1 9/9/1 10/10/1 
f 10/10/1 14/14/1 13/13/1 
f 15/15/1 11/11/1 9/9/1 
f 9/9/1 13/13/1 15/15/1 
f 16/16/1 12/12/1 11/11/1 
f 11/11/1 15/15/1 16/16/1 
s 4
f 17/5/2 18/7/2 19/8/2 
f 19/8/2 20/6/2 17/5/2 
f 21/1/2 17/5/2 20/6/2 
f 20/6/2 22/2/2 21/1/2 
f 23/4/2 21/1/2 22/2/2 
f 22/2/2 24/3/2 23/4/2 
f 25/11/2 26/12/2 18/7/2 
f 18/7/2 17/5/2 25/11/2 
f 27/9/2 28/11/2 29/5/2 
f 29/5/2 30/1/2 27/9/2 
f 31/10/2 32/9/2 21/1/2 
f 21/1/2 23/4/2 31/10/2 
f 33/15/2 34/16/2 26/12/2 
f 26/12/2 25/11/2 33/15/2 
f 35/13/2 33/15/2 25/11/2 
f 25/11/2 32/9/2 35/13/2 
f 36/14/2 35/13/2 32/9/2 
f 32/9/2 31/10/2 36/14/2 
s 8
f 20/15/3 19/16/3 3/8/3 
f 3/8/3 2/6/3 20/15/3 
f 22/13/3 20/15/3 2/6/3 
f 2/6/3 6/2/3 22/13/3 
f 24/14/3 22/13/3 6/2/3 
f 6/2/3 8/3/3 24/14/3 
s 16
f 23/15/4 24/16/4 8/8/4 
f 8/8/4 7/6/4 23/15/4 
f 31/13/4 23/15/4 7/6/4 
f 7/6/4 12/2/4 31/13/4 
f 36/14/4 31/13/4 12/2/4 
f 12/2/4 16/3/4 36/14/4 
s 32
f 35/15/5 36/16/5 16/8/5 
f 16/8/5 15/6/5 35/15/5 
f 33/13/5 35/15/5 15/6/5 
f 15/6/5 13/2/5 33/13/5 
f 34/14/5 33/13/5 13/2/5 
f 13/2/5 14/3/5 34/14/5 
s 64
f 26/15/6 34/16/6 14/8/6 
f 14/8/6 10/6/6 26/15/6 
f 18/13/6 26/15/6 10/6/6 
f 10/6/6 4/2/6 18/13/6 
f 19/14/6 18/13/6 4/2/6 
f 4/2/6 3/3/6 19/14/6 
s off
f 17/5/3 21/1/3 30/1/3 
f 30/1/3 29/5/3 17/5/3 
f 21/1/4 32/9/4 27/9/4 
f 27/9/4 30/1/4 21/1/4 
f 32/9/5 25/11/5 28/11/5 
f 28/11/5 27/9/5 32/9/5 
f 25/11/6 17/5/6 29/5/6 
f 29/5/6 28/11/6 25/11/6 
# 68 faces

